<?xml version="1.0" encoding="utf-8"?>
<!-- Generator: Adobe Illustrator 25.1.0, SVG Export Plug-In . SVG Version: 6.00 Build 0)  -->
<svg version="1.1" id="Layer_1" xmlns="http://www.w3.org/2000/svg" xmlns:xlink="http://www.w3.org/1999/xlink" x="0px" y="0px"
	 viewBox="0 0 1080 1080" style="enable-background:new 0 0 1080 1080;" xml:space="preserve">
<style type="text/css">
	.st0{fill:#FFFFFF;}
</style>
<path class="st0" d="M809.53,800.78l37.71,25.31l158.19-158.19L717.57,252.86V3.51l-90.49,75.03
	c-22.14,18.35-44.53,38.03-66.61,58.53C311.85,368.45,143.25,679.12,85.74,1011.85l-11.18,64.64h751.98l-108.97-302.6v-11.99
	C750.3,768.83,781.45,781.94,809.53,800.78z M528.84,552.68c-23.64,21.64-36.79,51.74-37.03,84.76
	c-0.24,32.35,12.01,63.69,34.49,88.25c22.48,24.56,52.62,39.53,84.86,42.15c1.55,0.13,3.08,0.22,4.62,0.29
	c16.35,0.72,32.17-1.89,46.79-7.42l39.32,132.63l46.06,127.92H140.17c57.17-330.73,222.37-624.52,457.94-843.74
	c20.88-19.39,42.25-38.22,64.24-56.45v149.07l271.41,391.33l-93.45,93.45c-50.87-34.13-107.04-51.56-172.88-51.56
	c-28.46,26.06-76.44,20.85-105.2-10.55c-14.15-15.46-21.86-34.99-21.72-55.01c0.14-19.33,7.68-36.81,21.22-49.2L528.84,552.68z"/>
</svg>
